<?xml version="1.0" encoding="UTF-8"?>
<svg xmlns="http://www.w3.org/2000/svg" xmlns:xlink="http://www.w3.org/1999/xlink" width="800px" height="600px" viewBox="0 0 648 600" version="1.1">
<g id="surface1">
<path style=" stroke:none;fill-rule:nonzero;fill:rgb(0%,0%,0%);fill-opacity:1;" d="M 533.082031 0.808594 C 520.425781 4.203125 496.632812 14.078125 482.304688 21.878906 C 474.914062 25.929688 474 26.535156 470.710938 30.132812 C 465.042969 36.308594 445.804688 64.667969 428.640625 92.167969 C 425.605469 97.027344 421.097656 104.117188 418.667969 107.867188 C 413.65625 115.613281 406.921875 127.566406 403.9375 134.046875 C 401.101562 140.175781 395.785156 157.242188 386.015625 191.679688 C 376.546875 225.101562 369.003906 253.207031 365.664062 267.488281 C 363.539062 276.402344 363.792969 276.148438 359.4375 275.035156 C 358.476562 274.78125 355.894531 274.273438 353.765625 273.917969 L 349.871094 273.261719 L 349.617188 270.730469 C 349.464844 269.3125 348.957031 261.511719 348.554688 253.460938 C 347.390625 232.089844 344.957031 193.246094 343.492188 173.699219 C 342.78125 164.382812 342.125 154.8125 341.921875 152.429688 C 341.566406 147.265625 338.78125 117.183594 338.378906 113.941406 C 337.617188 108.269531 336.605469 103.105469 336.097656 102.5 C 335.339844 101.585938 332.554688 101.082031 330.632812 101.535156 C 327.695312 102.195312 324.65625 105.789062 326.53125 106.449219 C 327.140625 106.652344 329.316406 122.148438 330.023438 131.414062 C 330.328125 135.011719 331.035156 143.570312 331.59375 150.40625 C 335.1875 195.070312 337.113281 226.570312 337.515625 248.394531 L 337.769531 265.109375 L 336.097656 266.730469 C 333.566406 269.058594 330.835938 270.425781 328.554688 270.425781 C 326.023438 270.425781 318.480469 268.148438 301.472656 262.171875 C 278.996094 254.269531 266.238281 249.5625 252.871094 244.191406 C 240.773438 239.382812 236.722656 237.609375 216.523438 228.496094 C 206.804688 224.089844 191.765625 216.238281 190.046875 214.667969 C 189.488281 214.164062 188.882812 213.707031 188.730469 213.707031 C 188.273438 213.707031 187.3125 218.0625 187.3125 220.238281 C 187.3125 224.390625 187.921875 224.949219 200.726562 231.9375 C 211.359375 237.761719 216.574219 240.242188 234.796875 248.09375 C 254.1875 256.398438 276.058594 263.488281 308.054688 271.691406 C 315.699219 273.667969 317.519531 274.324219 324.253906 277.820312 C 328.453125 279.945312 331.949219 281.769531 332.050781 281.871094 C 332.152344 281.972656 331.847656 284.148438 331.441406 286.730469 C 330.984375 289.316406 330.480469 292.351562 330.328125 293.46875 C 330.175781 294.582031 329.871094 295.796875 329.621094 296.152344 C 329.316406 296.65625 324.558594 295.59375 309.269531 291.746094 C 285.324219 285.667969 279.195312 284.25 254.898438 279.339844 C 226.242188 273.515625 196.578125 268.90625 173.898438 266.777344 C 165.089844 265.96875 134.664062 265.96875 124.789062 266.777344 C 106.96875 268.296875 82.722656 273.3125 68.597656 278.476562 C 66.371094 279.289062 62.269531 280.808594 59.484375 281.820312 C 46.878906 286.378906 26.070312 297.773438 14.882812 306.179688 C 4.152344 314.230469 0 321.117188 0 330.941406 C 0 335.855469 2.683594 344.210938 5.921875 349.527344 C 15.339844 364.820312 34.628906 382.292969 54.015625 393.078125 C 58.828125 395.761719 62.875 397.636719 65.253906 398.296875 C 69.660156 399.460938 70.46875 400.320312 73.304688 406.753906 C 77.609375 416.273438 80.441406 418.753906 89.101562 420.578125 C 91.480469 421.03125 93.808594 421.640625 94.265625 421.894531 C 94.71875 422.148438 95.578125 423.667969 96.1875 425.234375 C 102.871094 443.214844 107.476562 451.46875 115.324219 459.46875 C 122.359375 466.660156 128.636719 470.054688 137.902344 471.726562 C 143.671875 472.789062 153.847656 472.535156 160.480469 471.167969 C 171.011719 468.992188 185.238281 463.925781 196.425781 458.304688 C 202.601562 455.214844 204.171875 455.113281 204.472656 457.796875 C 204.675781 459.976562 203.816406 466.257812 202.246094 474.257812 C 199.410156 488.4375 198.753906 505.503906 200.726562 514.515625 C 202.601562 522.972656 205.488281 529.660156 209.839844 535.535156 C 212.980469 539.738281 224.066406 550.929688 227.304688 553.15625 C 228.570312 554.015625 231.710938 556.347656 234.292969 558.371094 C 239.253906 562.324219 251.101562 569.613281 260.71875 574.679688 C 272.464844 580.859375 291.09375 588.25 303.140625 591.492188 C 307.089844 592.605469 310.535156 593.570312 310.785156 593.71875 C 311.242188 594.023438 319.746094 595.796875 329.0625 597.570312 C 345.972656 600.808594 367.183594 600.859375 381.207031 597.773438 C 389.253906 595.949219 399.230469 591.59375 404.746094 587.339844 C 410.367188 583.085938 417.046875 573.867188 422.871094 562.324219 C 433.351562 541.609375 436.386719 523.277344 432.792969 501.703125 C 430.71875 488.792969 428.085938 481.296875 420.695312 466.609375 C 417.148438 459.671875 413.503906 453.34375 410.164062 448.429688 C 407.328125 444.328125 405 441.085938 405 441.238281 C 405 441.441406 406.570312 451.011719 408.542969 462.558594 C 413.503906 492.234375 414.214844 500.035156 413.050781 513.148438 L 412.441406 519.632812 L 411.023438 518.265625 C 407.480469 514.871094 403.734375 506.820312 401.203125 497.25 C 398.113281 485.449219 396.796875 473.394531 395.886719 447.921875 C 395.382812 433.492188 393.761719 410.195312 392.851562 403.105469 C 392.597656 401.28125 391.9375 397.636719 391.382812 395.003906 C 390.824219 392.371094 390.421875 390.140625 390.46875 390.089844 C 390.519531 390.039062 392.394531 391.609375 394.621094 393.636719 C 396.847656 395.609375 400.847656 398.800781 403.480469 400.777344 C 409.757812 405.386719 414.921875 410.398438 419.277344 416.019531 C 421.25 418.5 423.125 420.730469 423.476562 420.984375 C 423.882812 421.183594 426.617188 424.121094 429.605469 427.515625 C 440.386719 439.769531 447.726562 453.039062 454.917969 473.394531 C 458.5625 483.726562 459.625 487.476562 463.421875 503.933594 C 465.191406 511.628906 467.066406 518.519531 467.523438 519.277344 C 469.546875 522.367188 473.75 519.886719 475.773438 514.367188 C 479.015625 505.757812 478.253906 495.882812 473.242188 480.839844 C 471.015625 474.207031 465.648438 461.140625 463.523438 457.191406 C 462.863281 455.976562 460.230469 451.011719 457.648438 446.152344 C 451.726562 435.011719 444.941406 423.3125 440.03125 415.765625 C 436.082031 409.6875 420.695312 388.925781 417.960938 385.9375 L 416.390625 384.265625 L 418.164062 385.128906 C 419.125 385.632812 432.035156 393.535156 446.765625 402.75 C 490 429.640625 496.023438 433.238281 509.539062 440.023438 C 520.375 445.492188 524.878906 446.554688 540.675781 447.417969 C 547.003906 447.773438 555.660156 448.785156 562.445312 449.949219 C 568.367188 450.960938 574.390625 450.910156 580.414062 449.746094 C 587.300781 448.378906 590.289062 447.316406 596.109375 444.125 C 606.941406 438.097656 613.675781 430.402344 621.371094 415.261719 C 629.773438 398.75 636.558594 379.152344 641.367188 357.277344 C 646.53125 333.777344 648.707031 311.75 647.542969 293.417969 C 646.683594 278.832031 644.859375 270.527344 640.203125 259.488281 C 632.8125 241.914062 622.433594 230.824219 608.511719 225.558594 C 599.199219 222.0625 598.335938 221.65625 597.628906 220.644531 C 596.765625 219.429688 597.121094 218.621094 599.90625 215.226562 C 604.96875 208.996094 610.6875 196.386719 612.96875 186.613281 C 617.777344 165.597656 614.585938 146.707031 602.742188 126.097656 C 597.832031 117.488281 591.300781 103.15625 591.046875 100.371094 C 590.894531 98.296875 589.78125 92.824219 588.3125 87.101562 C 586.996094 81.683594 579.960938 58.390625 575.503906 44.566406 C 569.277344 25.066406 565.785156 15.496094 564.0625 13.167969 C 560.015625 7.546875 553.734375 2.785156 548.066406 1.0625 C 543.964844 -0.203125 537.332031 -0.304688 533.082031 0.808594 Z M 522.449219 81.027344 C 522.449219 81.480469 516.882812 83.761719 516.578125 83.40625 C 516.273438 83.152344 521.640625 80.164062 522.09375 80.367188 C 522.296875 80.46875 522.449219 80.773438 522.449219 81.027344 Z M 514.351562 84.265625 C 514.351562 84.367188 511.921875 85.886719 508.933594 87.660156 C 505.894531 89.382812 501.84375 92.015625 499.871094 93.484375 C 495.265625 96.929688 488.125 104.523438 482.710938 111.664062 C 477.847656 118.097656 477.75 118.195312 471.066406 122.90625 C 456.535156 133.136719 447.472656 137.746094 441.90625 137.746094 L 438.816406 137.746094 L 442.261719 133.289062 C 455.421875 116.375 471.269531 102.75 487.265625 94.800781 C 494.503906 91.207031 507.667969 85.9375 514.25 84.117188 C 514.300781 84.066406 514.351562 84.167969 514.351562 84.265625 Z M 471.320312 87.40625 C 472.179688 89.636719 471.875 91.507812 470.253906 94.292969 C 467.167969 99.5625 460.738281 106.652344 456.28125 109.839844 L 454.613281 110.957031 L 454.105469 109.640625 C 453.195312 107.257812 453.5 102.246094 454.613281 100.269531 C 455.167969 99.308594 458.5625 95.710938 462.105469 92.320312 C 468.9375 85.734375 470.40625 84.925781 471.320312 87.40625 Z M 540.574219 103.460938 C 540.675781 104.675781 540.421875 105.941406 539.8125 106.851562 C 537.382812 110.652344 525.890625 118.703125 520.171875 120.527344 C 515.515625 122.046875 507.414062 125.4375 498.65625 129.640625 C 488.074219 134.65625 481.140625 137.492188 477.292969 138.300781 C 474.558594 138.910156 469.953125 138.65625 468.484375 137.847656 C 467.117188 137.085938 471.824219 133.945312 487.519531 125.085938 C 499.871094 118.195312 507.515625 114.246094 514.550781 111.15625 C 518.199219 109.589844 521.945312 107.664062 522.90625 106.902344 C 526.347656 104.167969 529.03125 103.207031 536.371094 101.839844 C 540.117188 101.179688 540.421875 101.28125 540.574219 103.460938 Z M 438.109375 110.90625 L 440.4375 111.96875 L 438.714844 114.601562 C 437.804688 116.070312 436.335938 118.398438 435.425781 119.867188 C 433.90625 122.300781 429.503906 126.503906 428.996094 125.996094 C 428.894531 125.84375 429.300781 124.628906 429.90625 123.261719 C 430.617188 121.640625 431.019531 119.714844 431.019531 117.742188 C 431.070312 115.109375 431.222656 114.652344 432.234375 114.195312 C 432.996094 113.894531 433.351562 113.285156 433.351562 112.375 C 433.351562 111.511719 433.753906 110.855469 434.515625 110.5 C 435.121094 110.195312 435.679688 109.941406 435.679688 109.941406 C 435.730469 109.890625 436.792969 110.347656 438.109375 110.90625 Z M 554.648438 135.011719 C 547.710938 141.390625 534.75 149.847656 522.449219 155.976562 C 507.972656 163.21875 492.175781 167.773438 484.632812 166.863281 L 481.949219 166.558594 L 482.8125 164.9375 C 485.695312 159.265625 491.214844 153.089844 497.644531 148.277344 C 500.429688 146.152344 511.414062 140.832031 515.765625 139.464844 C 527.511719 135.769531 541.789062 133.390625 555.355469 132.78125 L 557.128906 132.730469 Z M 472.179688 150.660156 C 473.546875 151.113281 473.800781 152.078125 474.203125 157.75 C 475.21875 173.597656 466.8125 189.042969 441.753906 217.503906 C 440.03125 219.429688 437.046875 222.972656 435.121094 225.355469 C 433.199219 227.734375 429.753906 231.835938 427.527344 234.46875 C 414.71875 249.511719 401.507812 269.613281 393.101562 286.78125 L 388.445312 296.304688 L 388.089844 293.921875 C 387.484375 289.316406 387.738281 285.769531 389.914062 270.679688 C 391.988281 255.890625 396.445312 237.003906 401.457031 221.605469 C 402.824219 217.402344 404.390625 212.238281 405 210.160156 C 406.417969 205.300781 411.734375 191.121094 413.300781 187.980469 C 413.960938 186.664062 414.769531 184.6875 415.125 183.574219 C 415.480469 182.460938 417.910156 177.296875 420.542969 172.078125 C 425.046875 163.066406 430.261719 154.960938 432.035156 154.304688 C 432.4375 154.152344 436.386719 153.394531 440.792969 152.734375 C 445.195312 152.027344 450.867188 151.113281 453.347656 150.707031 C 457.851562 149.949219 469.75 149.949219 472.179688 150.660156 Z M 562.695312 170.914062 C 567.101562 171.371094 570.796875 171.777344 570.847656 171.828125 C 571.707031 172.6875 570.644531 174.15625 566.242188 178.308594 C 555.558594 188.234375 546.242188 193.601562 535.359375 195.984375 C 531.359375 196.894531 522.246094 197.90625 515.617188 198.261719 C 501.390625 198.96875 487.972656 201.652344 477.445312 205.859375 C 474.304688 207.125 468.890625 209.808594 465.34375 211.882812 C 455.726562 217.453125 456.183594 217.300781 458.207031 214.464844 C 460.585938 211.074219 469.902344 201.453125 474 198.058594 C 491.570312 183.574219 511.566406 174.15625 530.042969 171.675781 C 532.421875 171.320312 535.511719 170.914062 536.878906 170.660156 C 541.179688 170.003906 554.191406 170.105469 562.695312 170.914062 Z M 578.847656 208.542969 C 576.011719 211.074219 563.910156 217.65625 551.203125 223.53125 C 545.433594 226.214844 540.574219 228.394531 540.472656 228.394531 C 540.320312 228.394531 535.917969 230.367188 530.703125 232.75 C 525.488281 235.128906 511.871094 241.15625 500.429688 246.117188 C 468.585938 259.941406 463.523438 262.222656 448.789062 269.3125 C 426.871094 279.894531 417.910156 284.757812 409.65625 290.480469 C 407.886719 291.695312 406.367188 292.707031 406.265625 292.707031 C 406.164062 292.707031 406.722656 291.644531 407.53125 290.277344 C 408.339844 288.960938 409.503906 286.074219 410.0625 283.84375 C 411.480469 278.023438 414.316406 270.679688 415.882812 268.601562 C 416.644531 267.589844 418.972656 265.410156 421.097656 263.691406 C 423.226562 261.96875 427.023438 258.828125 429.554688 256.703125 C 432.035156 254.625 438.3125 249.761719 443.476562 245.914062 C 448.640625 242.117188 454.105469 238.015625 455.625 236.851562 C 457.144531 235.683594 459.523438 234.015625 460.941406 233.152344 C 462.308594 232.292969 465.648438 230.214844 468.332031 228.496094 C 478.101562 222.316406 493.746094 215.175781 500.933594 213.707031 C 502.605469 213.351562 504.78125 212.847656 505.742188 212.542969 C 508.476562 211.679688 522.398438 211.882812 530.042969 212.898438 C 533.789062 213.402344 538.699219 214.011719 540.929688 214.316406 C 546.191406 214.972656 555.761719 214.414062 561.582031 213.148438 C 566.441406 212.085938 576.46875 208.792969 578.949219 207.425781 C 581.175781 206.261719 581.125 206.464844 578.847656 208.542969 Z M 543.710938 243.890625 C 535.308594 246.066406 527.511719 249.054688 518.90625 253.359375 C 508.78125 258.371094 503.414062 261.613281 480.027344 276.957031 C 442.714844 301.417969 430.109375 307.699219 416.59375 308.660156 L 412.847656 308.914062 L 418.164062 307.699219 C 424.492188 306.28125 429.300781 304.40625 436.132812 300.707031 C 441.601562 297.773438 453.851562 289.820312 459.167969 285.769531 C 484.785156 266.273438 491.921875 261.15625 500.933594 255.890625 C 516.730469 246.675781 529.285156 242.722656 542.953125 242.675781 L 548.523438 242.675781 Z M 551.15625 269.210938 C 551.457031 270.019531 550.140625 271.285156 546.140625 273.96875 C 545.128906 274.679688 540.828125 278.070312 536.625 281.515625 C 527.207031 289.316406 525.386719 290.53125 518.25 293.972656 C 512.832031 296.605469 507.820312 297.972656 505.390625 297.519531 C 504.882812 297.417969 503.871094 297.214844 503.0625 297.011719 C 497.847656 295.949219 498.910156 290.480469 505.542969 284.808594 C 511.160156 279.996094 515.363281 277.566406 520.476562 276.25 C 522.09375 275.84375 526.347656 274.375 529.890625 273.007812 C 537.183594 270.171875 539.410156 269.515625 544.472656 268.957031 C 550.089844 268.296875 550.800781 268.347656 551.15625 269.210938 Z M 160.480469 278.476562 C 167.011719 280.148438 168.835938 280.757812 169.339844 281.566406 C 169.847656 282.425781 168.683594 285.363281 167.265625 286.578125 L 165.949219 287.695312 L 160.53125 286.429688 C 157.546875 285.71875 154.710938 285.113281 154.203125 285.113281 C 153.75 285.113281 152.027344 285.972656 150.457031 287.085938 C 136.484375 296.554688 130.410156 298.683594 120.742188 297.46875 C 113.097656 296.554688 112.691406 296.253906 115.78125 293.316406 C 119.121094 290.175781 121.449219 289.464844 128.183594 289.566406 C 131.472656 289.566406 134.5625 289.871094 135.117188 290.125 C 136.179688 290.734375 136.382812 290.53125 140.738281 284.605469 C 142.003906 282.933594 143.574219 281.160156 144.28125 280.65625 C 145.445312 279.894531 152.988281 277.109375 154.152344 277.058594 C 154.457031 277.058594 157.292969 277.667969 160.480469 278.476562 Z M 493.085938 283.894531 C 493.085938 284.199219 485.644531 287.644531 485.089844 287.59375 C 484.785156 287.59375 492.582031 283.59375 492.9375 283.59375 C 493.035156 283.59375 493.085938 283.742188 493.085938 283.894531 Z M 587.148438 285.261719 L 591.351562 285.871094 L 584.566406 292.300781 C 574.644531 301.671875 571.554688 303.796875 565.480469 305.570312 C 561.230469 306.785156 553.28125 307.898438 549.027344 307.898438 L 545.230469 307.898438 L 545.230469 309.671875 C 545.230469 314.9375 548.015625 318.585938 553.988281 321.066406 C 556.117188 321.976562 557.886719 322.839844 557.886719 323.042969 C 557.886719 323.195312 556.015625 323.800781 553.6875 324.308594 C 548.015625 325.625 534.347656 331.296875 521.691406 337.625 C 510.046875 343.449219 498.65625 346.4375 483.164062 347.753906 C 478.507812 348.109375 462.660156 347.097656 454.511719 345.882812 C 445.601562 344.515625 425.199219 339.652344 422.71875 338.285156 C 421.960938 337.828125 422.464844 337.574219 433.601562 332.5625 C 439.476562 329.878906 452.738281 325.371094 459.878906 323.546875 C 474.152344 319.902344 482.457031 319.042969 511.566406 318.027344 C 527.765625 317.472656 532.070312 316.863281 532.070312 315.292969 C 532.070312 314.078125 528.472656 310.128906 525.640625 308.203125 C 524.425781 307.445312 523.460938 306.632812 523.460938 306.429688 C 523.460938 305.875 549.988281 292.300781 556.265625 289.71875 C 568.113281 284.757812 576.0625 283.644531 587.148438 285.261719 Z M 477.140625 291.59375 C 476.835938 291.847656 474 293.570312 470.8125 295.492188 C 467.625 297.417969 462.359375 300.707031 459.167969 302.835938 C 446.816406 311.089844 443.980469 312.609375 437.398438 314.6875 C 431.171875 316.660156 423.074219 317.875 413.859375 318.230469 L 405.757812 318.535156 L 410.316406 316.761719 C 412.847656 315.800781 419.074219 313.824219 424.238281 312.40625 C 445.5 306.582031 460.230469 300.960938 471.824219 294.277344 C 476.835938 291.339844 478.203125 290.683594 477.140625 291.59375 Z M 217.332031 293.46875 C 224.523438 294.429688 230.902344 295.898438 241.277344 299.039062 C 248.417969 301.214844 251.25 301.722656 265.273438 303.34375 C 280.5625 305.113281 292.207031 308.152344 305.21875 313.671875 C 312.710938 316.863281 327.59375 324.714844 333.871094 328.816406 C 336.757812 330.6875 336.808594 330.789062 335.136719 330.535156 C 334.175781 330.335938 329.0625 329.980469 323.746094 329.675781 C 307.699219 328.714844 296.410156 329.421875 259.960938 333.726562 C 236.417969 336.5625 235.40625 336.664062 222.953125 337.523438 C 212.828125 338.234375 210.703125 338.234375 200.929688 337.523438 C 192.628906 336.917969 188.730469 336.359375 184.273438 335.246094 C 175.0625 332.96875 173.542969 332.257812 172.378906 329.929688 C 170.152344 325.269531 171.164062 318.6875 175.011719 312.964844 C 177.289062 309.570312 183.921875 302.835938 188.222656 299.59375 C 191.363281 297.214844 197.792969 293.570312 199.714844 293.0625 C 201.890625 292.503906 211.511719 292.757812 217.332031 293.46875 Z M 168.9375 300.40625 C 167.71875 301.875 166.050781 304.101562 165.238281 305.367188 C 163.921875 307.394531 163.519531 307.648438 161.746094 307.75 C 158.609375 307.949219 152.078125 309.316406 147.320312 310.785156 C 141.445312 312.609375 126.96875 319.394531 117.195312 324.964844 C 101.351562 333.980469 87.683594 341.121094 87.226562 340.664062 C 87.125 340.511719 89.605469 337.828125 92.746094 334.6875 C 100.84375 326.535156 111.527344 318.078125 119.726562 313.320312 C 121.652344 312.203125 124.992188 310.28125 127.070312 309.066406 C 131.828125 306.332031 143.421875 301.773438 150.101562 300 C 155.113281 298.734375 161.089844 297.972656 167.71875 297.824219 L 171.214844 297.773438 Z M 160.835938 322.484375 C 159.570312 324.359375 158.050781 327.398438 157.394531 329.320312 L 156.230469 332.714844 L 150.660156 335.855469 C 147.570312 337.574219 140.535156 341.527344 135.066406 344.664062 C 116.742188 355.199219 106.71875 359.65625 99.527344 360.414062 C 97.046875 360.667969 96.59375 360.617188 96.945312 360.011719 C 101.046875 353.171875 117.550781 340.714844 138.964844 328.308594 C 149.242188 322.332031 151.21875 321.371094 157.949219 319.09375 C 163.519531 317.21875 163.972656 317.722656 160.835938 322.484375 Z M 55.890625 322.128906 C 58.875 323.445312 59.535156 324.8125 58.015625 326.738281 C 57.460938 327.5 56.445312 328.816406 55.789062 329.675781 C 54.929688 330.789062 54.167969 331.195312 53.003906 331.195312 C 51.382812 331.195312 42.019531 328.15625 42.019531 327.648438 C 42.019531 327.5 43.132812 326.230469 44.550781 324.863281 C 46.878906 322.585938 48.902344 321.675781 53.207031 321.117188 C 53.410156 321.066406 54.625 321.523438 55.890625 322.128906 Z M 567.152344 332.917969 C 570.695312 333.828125 574.949219 335.5 581.832031 338.792969 C 587.199219 341.375 591.753906 343.652344 592.007812 343.855469 C 592.515625 344.363281 586.792969 348.667969 583.402344 350.234375 L 580.871094 351.453125 L 574.289062 349.984375 C 570.695312 349.171875 565.9375 348.007812 563.710938 347.449219 C 559.964844 346.488281 549.9375 344.917969 542.195312 344.058594 C 540.371094 343.855469 539.308594 343.550781 539.765625 343.398438 C 540.21875 343.246094 541.382812 342.082031 542.34375 340.816406 C 544.523438 337.980469 548.117188 334.992188 550.648438 333.878906 C 556.46875 331.449219 560.214844 331.195312 567.152344 332.917969 Z M 329.71875 343.601562 C 330.175781 344.613281 330.582031 345.476562 330.582031 345.578125 C 330.582031 345.730469 328.910156 346.4375 326.9375 347.199219 C 309.46875 353.78125 296.460938 359.402344 283.753906 365.785156 C 258.644531 378.34375 243.050781 388.519531 217.839844 408.828125 C 207.308594 417.285156 197.132812 425.691406 190.90625 431.058594 C 181.59375 439.164062 175.011719 443.667969 174.046875 442.707031 C 173.390625 442.050781 174.605469 439.214844 175.667969 438.910156 C 176.378906 438.707031 178.707031 435.261719 178.707031 434.402344 C 178.707031 434.300781 176.984375 434.300781 174.910156 434.402344 C 172.832031 434.503906 171.113281 434.402344 171.113281 434.148438 C 171.113281 433.035156 175.820312 427.007812 188.324219 412.222656 C 200.726562 397.585938 219.8125 377.277344 233.886719 363.808594 L 244.011719 354.1875 L 252.71875 351.300781 C 269.730469 345.78125 284.007812 342.84375 293.828125 342.84375 C 298.484375 342.84375 309.519531 344.363281 312.152344 345.425781 C 313.015625 345.730469 314.734375 345.832031 316.355469 345.628906 C 319.039062 345.273438 325.921875 343.246094 327.492188 342.335938 C 328.707031 341.628906 328.808594 341.679688 329.71875 343.601562 Z M 368.953125 345.730469 C 368.550781 346.234375 364.347656 351.300781 359.691406 357.023438 C 352.300781 366.035156 340.65625 379.8125 333.0625 388.621094 C 329.972656 392.21875 320.710938 400.726562 315.648438 404.625 C 310.585938 408.574219 302.128906 412.828125 296.613281 414.296875 C 293.828125 415.007812 289.929688 415.511719 285.523438 415.765625 L 278.691406 416.070312 L 274.640625 418.296875 C 272.414062 419.464844 268.871094 421.539062 266.792969 422.855469 C 261.527344 426.148438 256.414062 428.933594 255.65625 428.933594 C 254.59375 428.933594 255.300781 423.007812 256.667969 420.070312 C 258.238281 416.777344 266.640625 408.371094 272.363281 404.320312 C 279.046875 399.5625 294.941406 390.039062 307.039062 383.457031 C 316.507812 378.34375 338.882812 365.429688 344.25 362.035156 C 349.769531 358.492188 357.363281 353.273438 363.691406 348.566406 C 368.601562 344.96875 370.523438 343.957031 368.953125 345.730469 Z M 180.882812 347.601562 C 183.617188 348.3125 185.792969 349.375 185.792969 349.984375 C 185.792969 350.136719 181.996094 353.324219 177.339844 357.074219 C 172.632812 360.769531 167.71875 364.871094 166.304688 366.1875 C 162.304688 369.886719 155.113281 375.304688 149.597656 378.796875 C 146.8125 380.519531 143.976562 382.34375 143.269531 382.847656 C 137.042969 387.101562 124.386719 391.15625 115.476562 391.710938 L 110.210938 392.066406 L 111.882812 389.128906 C 112.792969 387.457031 114.160156 385.332031 114.917969 384.367188 C 115.679688 383.40625 116.589844 382.039062 116.945312 381.332031 C 118.410156 378.644531 125.195312 370.644531 129.652344 366.441406 C 141.140625 355.605469 153.597656 349.324219 167.570312 347.199219 C 170.808594 346.742188 178.402344 346.945312 180.882812 347.601562 Z M 238.949219 347.550781 C 238.949219 347.652344 236.824219 349.324219 234.292969 351.25 C 231.710938 353.171875 223.359375 359.859375 215.664062 366.136719 C 181.441406 394.042969 173.542969 400.117188 160.835938 408.222656 C 154.863281 412.019531 140.027344 419.3125 139.472656 418.703125 C 139.117188 418.347656 142.054688 408.421875 143.472656 405.386719 C 147.269531 397.027344 158.507812 385.535156 170.152344 377.988281 C 173.644531 375.707031 175.769531 374.140625 186.300781 366.035156 C 196.527344 358.1875 208.070312 351.652344 213.6875 350.488281 C 223.660156 348.464844 238.949219 346.691406 238.949219 347.550781 Z M 425.808594 349.882812 C 428.996094 350.996094 438.515625 353.476562 447.019531 355.453125 C 462.003906 358.945312 466.457031 360.210938 479.164062 364.617188 C 487.417969 367.453125 513.894531 380.113281 525.992188 387.003906 C 531.410156 390.039062 538.546875 394.09375 541.789062 395.914062 C 545.027344 397.789062 547.609375 399.359375 547.507812 399.460938 C 547.40625 399.5625 543.761719 398.09375 539.308594 396.21875 C 526.90625 390.953125 511.921875 385.585938 504.074219 383.609375 C 499.414062 382.394531 491.71875 381.886719 490.910156 382.648438 C 490.757812 382.847656 491.46875 384.117188 492.53125 385.585938 C 493.542969 387.003906 495.667969 389.988281 497.136719 392.21875 C 501.390625 398.546875 505.339844 402.398438 509.792969 404.472656 C 512.933594 405.941406 514.601562 406.347656 519.917969 406.953125 C 529.539062 408.019531 529.234375 408.121094 516.375 407.917969 C 498.554688 407.613281 491.972656 406.347656 481.898438 401.332031 C 474.660156 397.6875 471.066406 394.699219 453.851562 378.039062 C 444.539062 369.023438 435.730469 361.074219 429.804688 356.3125 C 419.226562 347.753906 419.378906 347.90625 419.730469 347.90625 C 419.882812 347.90625 422.617188 348.820312 425.808594 349.882812 Z M 542.699219 351.402344 C 550.902344 353.679688 559.964844 362.1875 566.847656 373.988281 C 570.796875 380.773438 571.65625 382.445312 571.40625 382.648438 C 571.304688 382.796875 569.378906 382.292969 567.203125 381.632812 C 565.027344 380.925781 557.53125 378.644531 550.546875 376.570312 C 543.609375 374.492188 530.5 370.238281 521.4375 367.152344 C 512.375 364.0625 504.226562 361.277344 503.363281 360.972656 C 502.453125 360.667969 501.695312 360.210938 501.695312 360.0625 C 501.695312 359.859375 502.910156 359.503906 504.375 359.351562 C 511.871094 358.339844 519.765625 355.90625 528.523438 351.753906 C 532.070312 350.085938 537.484375 349.984375 542.699219 351.402344 Z M 499.164062 359.300781 C 499.972656 359.757812 500.125 360.011719 499.617188 360.0625 C 499.214844 360.0625 498.402344 359.707031 497.847656 359.300781 C 496.632812 358.390625 497.492188 358.339844 499.164062 359.300781 Z M 303.75 371.40625 C 303.75 371.960938 281.625 390.800781 277.171875 394.042969 C 274.386719 396.066406 262.1875 404.320312 250.085938 412.375 C 227.609375 427.363281 212.167969 436.933594 206.246094 439.617188 L 202.90625 441.085938 L 203.765625 439.71875 C 204.273438 438.910156 205.640625 437.035156 206.804688 435.515625 C 207.96875 433.996094 209.636719 431.617188 210.550781 430.300781 C 212.828125 426.957031 224.472656 415.460938 230.089844 410.957031 C 242.441406 401.132812 259.453125 391.558594 287.042969 379.050781 C 293.320312 376.214844 299.597656 373.277344 300.964844 372.570312 C 303.75 371.101562 303.75 371.101562 303.75 371.40625 Z M 366.121094 380.367188 C 365.308594 382.445312 363.539062 387.40625 362.222656 391.457031 C 360.90625 395.511719 357.917969 403.917969 355.640625 410.195312 C 353.363281 416.476562 351.085938 422.855469 350.578125 424.375 C 349.160156 428.730469 341.617188 444.582031 338.378906 450.050781 C 334.734375 456.230469 331.289062 460.886719 326.480469 466.207031 C 324.40625 468.433594 321.367188 471.929688 319.746094 473.953125 C 315.898438 478.613281 307.699219 486.511719 304.207031 488.84375 C 302.738281 489.855469 301.421875 490.613281 301.371094 490.511719 C 301.269531 490.460938 301.523438 489.703125 301.828125 488.84375 C 302.332031 487.476562 302.230469 486.867188 301.015625 484.082031 C 300.207031 482.308594 299.445312 480.6875 299.246094 480.484375 C 299.042969 480.285156 297.828125 481.953125 296.460938 484.183594 L 294.03125 488.285156 L 293.929688 494.414062 C 293.726562 503.527344 291.449219 510.515625 285.675781 519.175781 C 283.296875 522.824219 276.464844 530.417969 274.742188 531.28125 C 273.882812 531.785156 273.933594 531.53125 275.097656 529.609375 C 277.929688 525 280.460938 518.769531 283.957031 507.78125 C 285.929688 501.554688 287.804688 495.121094 288.054688 493.449219 C 288.714844 489.601562 288.714844 480.484375 288.054688 478.96875 C 287.398438 477.296875 285.472656 475.167969 285.222656 475.828125 C 284.257812 478.15625 278.03125 488.640625 274.488281 494.007812 C 268.617188 502.769531 262.59375 509.046875 257.53125 511.679688 C 255.453125 512.746094 253.480469 513.554688 253.175781 513.453125 C 252.871094 513.351562 257.78125 506.261719 264.109375 497.753906 C 270.488281 489.246094 277.828125 479.117188 280.460938 475.269531 C 285.777344 467.574219 288.003906 464.789062 290.890625 462.253906 C 292.511719 460.835938 293.167969 460.585938 295.597656 460.484375 L 298.433594 460.433594 L 299.800781 455.925781 C 301.625 449.898438 302.6875 447.214844 305.167969 442.101562 C 313.621094 424.628906 326.378906 408.929688 345.007812 393.027344 C 351.386719 387.558594 366.929688 376.011719 367.386719 376.417969 C 367.488281 376.570312 366.929688 378.34375 366.121094 380.367188 Z M 379.433594 394.09375 C 380.699219 397.027344 382.371094 401.992188 383.179688 405.082031 C 383.992188 408.121094 384.75 410.855469 384.902344 411.058594 C 385.914062 412.726562 389.710938 435.820312 390.773438 446.910156 C 392.75 467.066406 393.050781 474.257812 393.101562 496.03125 L 393.101562 518.316406 L 391.585938 518.316406 C 390.269531 518.316406 389.914062 517.960938 388.699219 515.53125 C 387.027344 512.085938 385.054688 506.007812 383.789062 500.335938 C 382.472656 494.414062 382.320312 493.347656 381.257812 484.335938 C 380.699219 480.03125 380.195312 476.382812 380.09375 476.230469 C 379.941406 476.132812 379.585938 478.257812 379.230469 480.992188 C 378.878906 483.675781 377.714844 490.058594 376.597656 495.121094 C 374.929688 502.921875 374.625 505.300781 374.625 510.3125 C 374.625 516.59375 375.28125 521.65625 376.449219 524.796875 C 377.257812 526.976562 377.359375 527.582031 376.699219 526.875 C 375.433594 525.609375 370.070312 509.960938 367.082031 499.070312 C 361.867188 479.828125 358.578125 462.253906 357.160156 446 C 356.148438 433.996094 356.199219 429.691406 357.414062 424.984375 C 359.386719 417.335938 361.007812 413.792969 372.042969 393.585938 C 376.347656 385.734375 375.890625 385.683594 379.433594 394.09375 Z M 552.875 401.890625 C 553.734375 402.296875 554.34375 402.800781 554.191406 402.902344 C 554.039062 403.054688 553.179688 402.699219 552.269531 402.144531 C 550.242188 400.878906 550.699219 400.726562 552.875 401.890625 Z M 507.160156 418.804688 C 512.222656 420.171875 517.996094 421.996094 520.019531 422.855469 C 525.082031 425.035156 534.652344 429.894531 535.765625 430.859375 C 536.625 431.617188 536.929688 434.148438 536.320312 435.769531 C 535.714844 437.238281 532.121094 438.707031 529.839844 438.351562 C 526.398438 437.796875 509.339844 431.972656 504.933594 429.84375 C 500.074219 427.464844 494.351562 423.261719 493.035156 421.132812 C 491.921875 419.363281 491.769531 416.980469 492.734375 416.628906 C 494.554688 415.867188 498.757812 416.527344 507.160156 418.804688 Z M 293.066406 430.25 C 292.511719 430.957031 292.5625 431.160156 293.320312 431.71875 C 295.09375 433.035156 293.523438 435.667969 287.347656 441.847656 C 281.777344 447.417969 274.742188 453.039062 265.125 459.519531 C 259.960938 463.015625 254.238281 466.15625 253.78125 465.699219 C 253.125 465.089844 262.492188 453.542969 267.90625 448.378906 C 275.199219 441.339844 281.222656 436.78125 290.335938 431.261719 C 293.777344 429.1875 294.03125 429.085938 293.066406 430.25 Z M 355.03125 460.128906 C 354.832031 461.597656 354.425781 470.914062 353.816406 485.398438 C 352.855469 510.261719 350.273438 526.011719 346.074219 532.648438 C 343.894531 536.140625 343.542969 536.140625 342.125 532.898438 C 338.984375 525.757812 337.011719 518.164062 336.148438 509.707031 C 335.542969 503.730469 333.921875 492.996094 333.417969 491.730469 C 333.214844 491.222656 334.175781 489.550781 336 487.171875 C 337.71875 484.890625 339.84375 481.195312 341.3125 477.902344 C 344.808594 469.953125 346.832031 466.609375 350.628906 462.457031 C 353.867188 458.863281 355.234375 458.152344 355.03125 460.128906 Z M 324.859375 499.425781 C 326.226562 502.261719 326.886719 508.289062 326.480469 513.554688 C 326.125 517.910156 324.707031 522.0625 320.710938 530.519531 C 317.875 536.394531 314.9375 539.839844 312.8125 539.839844 C 310.886719 539.839844 307.546875 537.304688 306.179688 534.824219 C 303.496094 530.113281 302.992188 527.226562 302.992188 517.351562 L 302.992188 508.339844 L 305.167969 506.464844 C 307.75 504.339844 321.875 496.742188 322.988281 496.945312 C 323.390625 496.996094 324.253906 498.109375 324.859375 499.425781 Z M 324.859375 499.425781 "/>
</g>
</svg>
