<?xml version="1.0" encoding="UTF-8"?>
<svg xmlns="http://www.w3.org/2000/svg" xmlns:xlink="http://www.w3.org/1999/xlink" width="800px" height="600px" viewBox="0 0 800 600" version="1.1">
<g id="surface1">
<path style=" stroke:none;fill-rule:nonzero;fill:rgb(0%,0%,0%);fill-opacity:1;" d="M 232.5 38.6875 C 216.8125 43 201.1875 54.3125 187.125 71.5625 C 178.1875 82.4375 168.1875 101.3125 163.1875 116.5625 C 161.5 121.6875 159.9375 127 159.6875 128.25 C 159.4375 129.5625 159.125 130.625 159 130.625 C 158.875 130.625 155.625 128.8125 151.75 126.5625 C 137.125 118.125 117.6875 111.0625 101.3125 108.125 C 96.75 107.3125 96.25 107.625 96.25 111.375 C 96.25 114.75 99.4375 126.3125 103.75 138.75 C 105.875 144.75 108.125 151.9375 108.75 154.6875 C 109.375 157.4375 110.625 161.5625 111.5 163.8125 L 113.0625 167.9375 L 111.8125 169.9375 C 110.9375 171.4375 110.25 171.875 109.5 171.5625 C 94.375 165.75 78.875 162.125 62.8125 160.5625 C 49.25 159.25 19.9375 160.75 12.6875 163.1875 C 10.625 163.875 9.6875 165.375 11.75 164.75 C 14.375 163.9375 28.6875 162.4375 38.1875 161.9375 C 55.1875 161 72.3125 162.5625 87.0625 166.3125 C 94.25 168.125 109.375 173.1875 109.375 173.75 C 109.375 174.0625 108.0625 177 106.4375 180.3125 C 104.75 183.875 103.8125 186.5 104.125 186.875 C 104.4375 187.1875 107.5 188.5 110.9375 189.875 C 114.375 191.25 123.9375 195.3125 132.1875 198.9375 C 140.4375 202.5 149.625 206.375 152.625 207.5625 C 157.6875 209.5 159.75 211.25 157.0625 211.25 C 156.4375 211.25 150.4375 208.6875 143.75 205.5625 C 124 196.375 105.75 188.75 103.5 188.75 C 102.5 188.75 99.875 197.4375 98.375 205.3125 C 96.875 213.5 97.4375 227 99.625 234.625 C 102.5625 245.125 108.75 256 116.0625 263.8125 L 120 268 L 103.3125 268.25 C 91.3125 268.4375 86.125 268.75 85.0625 269.3125 C 82.375 270.8125 84.5 271.25 90.9375 270.625 C 94.375 270.3125 102.6875 270 109.375 270 L 121.625 270 L 128.5625 275.125 C 132.4375 278 138.75 282.0625 142.625 284.1875 C 146.5 286.375 149.5 288.125 149.3125 288.125 C 149.0625 288.125 144.625 288.6875 139.4375 289.375 C 116.625 292.4375 98 297.5625 83.4375 304.8125 C 72.8125 310.1875 61.4375 318.5 62.8125 319.9375 C 63.3125 320.4375 64.375 319.8125 66.5625 318 C 81.75 305.375 106.125 296.1875 135.9375 291.9375 C 151.8125 289.6875 154.125 289.625 158.375 291.5625 C 160.4375 292.4375 163.75 294.5 165.75 296.0625 L 169.375 298.9375 L 162.4375 302.625 C 150.8125 308.75 137.75 318.375 125.75 329.6875 C 120.6875 334.4375 119.4375 336.25 121.1875 336.25 C 121.4375 336.25 124.4375 333.6875 127.875 330.5625 C 140.5625 318.8125 153.4375 309.4375 165.1875 303.375 C 171.4375 300.125 171.125 300.125 179.625 303.125 C 186 305.375 193.0625 306.3125 200.3125 305.8125 C 204.625 305.5 206.0625 305.6875 210.875 307.1875 L 216.375 308.9375 L 216 314.9375 C 215.75 318.25 214.875 336.25 214.0625 355 C 213.1875 373.75 212.3125 392.8125 212.125 397.3125 L 211.6875 405.625 L 0 405.625 L 0 408.75 L 103.3125 408.75 C 160.0625 408.75 207.625 408.9375 208.9375 409.1875 L 211.375 409.5625 L 211.125 416.0625 C 211 421 210.6875 422.6875 210 423.125 C 209.4375 423.5 169.1875 423.75 104.5625 423.75 L 0 423.75 L 0 455.4375 L 56.375 455.8125 C 87.375 456.0625 130.3125 456.25 151.8125 456.25 L 190.9375 456.25 L 188.75 457.9375 C 182.1875 462.875 176.75 470.625 174 478.75 C 172.4375 483.3125 172.375 497.125 173.875 501 L 174.875 503.625 L 169.875 504.375 C 157.8125 506.125 146 510.125 141.375 514.0625 C 136.4375 518.1875 136.4375 522.125 141.25 526.4375 C 158.125 541.625 225 541.625 241.875 526.4375 C 245.75 523 246.375 520.5625 244.375 517 L 243 514.5625 L 245.125 511.1875 C 249.5 504.25 251.25 498 251.25 489.5625 L 251.25 483.75 L 254.4375 485.6875 C 258.375 488.125 261.4375 488.5 269.1875 487.5 C 278.875 486.25 281.8125 484.4375 283.75 478.5625 C 284.625 475.75 284.875 470.375 284.1875 468.125 C 283.75 466.625 284.125 466.3125 293.9375 461.125 L 304.1875 455.625 L 800 455.625 L 800 423.75 L 581.4375 423.625 L 362.875 423.4375 L 368.1875 417.5 C 382.4375 401.6875 410.3125 367.9375 418.3125 356.875 C 427.9375 343.5 435.6875 329.375 438.75 319.6875 C 440.75 313.375 441.1875 303.1875 439.625 298.6875 L 438.5 295.3125 L 438 298.4375 C 434.375 319.625 427.5 334.9375 409.375 361.875 C 399.9375 375.875 364.625 417.8125 357.6875 423.25 C 350.625 428.8125 344.625 432.125 316.4375 446.25 C 300.6875 454.0625 286.125 461.5625 284.125 462.75 C 280.4375 465 280.4375 465 279.125 463.8125 C 276.8125 461.6875 273.375 462 274.1875 464.25 C 274.4375 464.8125 275.9375 467.25 277.625 469.625 C 281 474.4375 281.375 476.625 279.375 479.8125 C 277.6875 482.625 275.625 483.4375 268 484.3125 C 260.9375 485.125 258.5625 484.9375 254.9375 483.0625 C 250.625 480.875 247.1875 475.25 248.3125 472.25 C 248.5 471.75 250.4375 470.75 252.6875 470.0625 C 257.6875 468.375 258.9375 467.5 258.375 466.0625 C 257.625 464.0625 255.375 464.125 253.1875 466.1875 C 251.6875 467.5625 250.5 468.125 248.9375 468.125 C 246.0625 468.125 244.75 467.375 240.625 463.1875 C 238.6875 461.25 235.125 457.8125 232.625 455.5625 C 226.9375 450.3125 226.75 449.125 231.1875 444.75 C 233.625 442.375 235.0625 441.5 238.1875 440.625 C 242.0625 439.625 242.125 439.5625 240.625 438.75 C 239.5 438.125 236.25 437.875 229.6875 437.8125 C 219.8125 437.75 216.3125 437.125 213.5 434.9375 C 211.3125 433.1875 211.4375 431.75 214.125 428.75 C 221.1875 420.9375 238.5 418.875 249.5625 424.4375 C 251 425.1875 253.5625 426.875 255.25 428.1875 C 257.6875 430.125 258.8125 430.625 260.875 430.625 C 266.1875 430.625 270.5625 427.6875 285.6875 413.9375 C 304.625 396.75 318.0625 387.6875 331.4375 383.25 L 336.875 381.375 L 334.125 380.6875 C 331.5 380.0625 329.0625 380.4375 324.8125 382.1875 C 324.0625 382.5 324.6875 380.6875 327.1875 375.6875 C 336.1875 357.75 339.9375 338.5625 340 310.9375 C 340 302.9375 340.625 293.9375 341.625 287.9375 C 342 285.6875 342.125 285.5625 343.6875 285.9375 C 346.125 286.5625 356.1875 291.5 359.375 293.6875 C 362.375 295.75 363.75 296.125 363.75 294.8125 C 363.75 293.875 359.375 290.9375 353.75 288.125 C 344.25 283.3125 332.5 279.6875 319.875 277.6875 C 316.1875 277.0625 313.125 276.4375 313.125 276.25 C 313.125 276.0625 314.0625 275.3125 315.25 274.5 C 316.375 273.75 319.1875 271.4375 321.5 269.4375 C 324.75 266.6875 326.0625 265.875 327.375 266.0625 C 337.4375 267.1875 350.4375 269.1875 359.5625 271 C 367.4375 272.5625 370.9375 273.0625 371.375 272.625 C 371.875 272.125 371.625 271.75 370.5625 271.3125 C 368.3125 270.3125 346.6875 266.375 337.3125 265.25 C 332.75 264.6875 328.6875 264.125 328.25 264 C 327.75 263.875 328.625 262.375 330.75 260 C 346.875 241.75 350.875 215.75 342.125 185.75 C 341.75 184.375 341.75 184.375 348.875 184.375 C 361.1875 184.375 374.875 186.5625 386.4375 190.375 C 389.9375 191.5625 391.5625 191.8125 392.0625 191.3125 C 393 190.375 388.125 188.375 379.4375 186.1875 C 370.4375 183.875 360.125 182.5625 349.375 182.25 L 340.9375 182.0625 L 338.875 176.5 C 337.75 173.4375 334.875 166.875 332.5 161.9375 C 330.0625 157 328.1875 152.8125 328.3125 152.6875 C 328.5 152.5625 332.9375 152 338.1875 151.5 C 344.75 150.8125 352.4375 150.625 362.1875 150.75 C 371.375 150.875 376.6875 150.6875 376.875 150.3125 C 377.9375 148.25 343.8125 148.25 329.625 150.375 C 327.0625 150.75 327 150.6875 324.9375 147.75 L 322.875 144.6875 L 322.6875 127.6875 C 322.5625 117.5625 322.75 110.0625 323.125 109.125 C 324.625 105.125 328 105.5625 345.5 111.875 C 351.25 113.9375 361.125 117.4375 367.5 119.75 C 400.75 131.5625 414.125 139.3125 429.5 155.625 C 439.8125 166.5 455.375 188.625 461.3125 200.8125 C 464.6875 207.8125 466.0625 211.8125 475 239.8125 C 477.0625 246.4375 479.8125 254.1875 481 257 C 482.25 259.875 485.0625 266.5625 487.3125 271.875 C 494.9375 290.1875 500.4375 299.125 510.625 309.375 C 519.8125 318.6875 529.5625 324.9375 540 328.25 C 544.1875 329.5 545.75 329.6875 554.375 329.5625 C 565.625 329.375 565.9375 329.5625 566.5625 334.625 C 567.125 338.9375 565.875 360.1875 564.75 366.6875 C 562.5625 378.8125 558.375 393.5625 554.4375 402.625 L 553.1875 405.625 L 381.0625 405.625 L 379 406.9375 C 377.8125 407.625 376.875 408.375 376.875 408.5 C 376.875 408.625 472.0625 408.75 588.4375 408.75 L 800 408.75 L 800 405.625 L 678.75 405.625 C 595.125 405.625 557.5 405.4375 557.5 405 C 557.5 404.625 558.5 401.4375 559.75 397.9375 C 562.375 390.3125 564.75 380.6875 567.8125 364.6875 C 574.125 331.8125 580.125 317.8125 593.75 304.8125 C 609.375 289.75 635.5 276.625 680.125 261.3125 C 688.25 258.5625 696.75 255.375 699.125 254.375 C 712.8125 248.1875 721.9375 237.75 725.25 224.375 C 727.875 213.75 728.75 174.6875 726.625 162.5 C 723.5625 144.9375 718.9375 134 711.4375 126.5 C 704.4375 119.5 692.125 115.5 687.875 118.8125 C 684.75 121.25 683.5 124.6875 683.25 131.625 C 682.9375 139.75 683.6875 142.4375 690.0625 155.3125 C 695.9375 167.25 696.875 170.75 696.875 181.25 C 696.8125 198 692.625 209.9375 683.4375 219.0625 C 675.9375 226.5625 665.4375 231.25 649.875 234.0625 C 624.9375 238.5625 603.875 248.125 584.375 263.8125 C 576.6875 270 567.3125 279.8125 563.4375 285.6875 C 561.8125 288.25 560.25 290.5625 560 290.8125 C 559.75 291.0625 556.5 287.4375 552.6875 282.6875 C 539.9375 266.6875 534.25 261.375 517.8125 250 C 490.4375 231 480 219.875 453.4375 181.25 C 442.6875 165.5625 436.75 158 429.375 150.625 C 409.875 131.0625 383.125 118.0625 331.5 103.125 L 320.125 99.8125 L 318.8125 96.8125 C 317.3125 93.625 314.375 90.625 312.625 90.625 C 312.0625 90.625 309.1875 91.3125 306.25 92.1875 C 301.875 93.4375 300.3125 93.6875 297.3125 93.25 L 293.625 92.8125 L 292.5 89.5625 C 291.875 87.75 289.5625 83.25 287.3125 79.5625 C 285.0625 75.875 282.4375 71.125 281.375 69.0625 C 273.8125 54 263 42.875 252.1875 39.0625 C 246.75 37.125 238.6875 37 232.5 38.6875 Z M 253.1875 44.1875 C 260.0625 47.4375 267.5 54.8125 274.1875 64.9375 C 277.625 70.125 284.5 83.6875 286.75 89.8125 L 287.9375 93 L 286.625 93.375 C 285.9375 93.5625 283.75 93.75 281.875 93.75 C 280 93.75 276.625 94.0625 274.375 94.375 C 272.125 94.6875 266.5 95.375 261.875 95.9375 C 239.75 98.5 214.3125 104.125 211.3125 107.1875 C 210.4375 108 210.625 108.125 212.75 108.125 C 214.125 108.125 219.375 107.125 224.4375 105.9375 C 245.5625 100.875 260.1875 98.8125 278 98.3125 C 285.625 98.125 291.875 98.125 291.875 98.3125 C 291.875 98.5 289 100.375 285.5 102.5 C 277.3125 107.375 268.625 113.5625 262.375 118.9375 L 257.4375 123.1875 L 250.4375 120.75 C 227.5625 112.6875 205 112.625 182.375 120.625 C 174.5625 123.375 169.625 126 167.875 128.375 C 165.6875 131.25 167.3125 131.4375 173 129.0625 C 179.375 126.375 188.5 123.75 198.75 121.5625 C 209.3125 119.3125 223.625 118.75 233.625 120.25 C 240.6875 121.3125 250.0625 123.6875 252.9375 125.25 L 254.5 126.0625 L 251.25 129.75 C 241.375 140.9375 235.375 153 236.5625 159.25 L 237 161.5 L 238.1875 160 C 238.875 159.125 241.9375 153.375 245.0625 147.1875 C 254 129.5 256.8125 125.9375 266.5625 119.125 C 286.0625 105.625 295.6875 99.9375 305.75 95.9375 C 311.5625 93.625 313.5625 93.9375 315.3125 97.4375 C 319.0625 104.875 320.4375 124.5625 318.375 140.75 C 316.75 153.5625 317.25 152.5 311.875 153.875 C 309.3125 154.5 303.9375 156.1875 300 157.625 C 292.125 160.4375 286.3125 161.1875 281.9375 160 C 279.1875 159.3125 276.875 157.4375 276.875 156.0625 C 276.875 155.625 279.6875 152.9375 283.125 150.0625 C 286.5 147.25 289.6875 144.4375 290.125 143.875 C 290.875 143 290.75 143 289.375 143.75 C 286.5 145.25 272.8125 152.625 270 154.1875 L 267.1875 155.75 L 268.75 154.25 C 269.625 153.375 273.6875 149.625 277.8125 145.9375 C 289.8125 135.125 290.75 134.25 290.5 134.0625 C 290.375 133.9375 285.9375 136.375 280.625 139.4375 C 275.3125 142.5 270.5625 145 270.0625 145 C 268.6875 145 269.625 140.375 272.125 135.375 C 275.75 128 287 116.875 299.5625 108.1875 C 304.0625 105.0625 305.9375 102.625 304.75 101.4375 C 304.125 100.8125 286.9375 112.6875 282.125 117.125 C 276.6875 122.0625 271.25 129.0625 269.0625 133.875 C 268.1875 135.875 267 139.625 266.5 142.3125 C 264.875 150.875 263.9375 153.4375 260.875 156.8125 L 258 160 L 263.875 160 C 268.3125 160 270.8125 160.375 274.5625 161.5625 C 277.1875 162.4375 280.5 163.3125 281.875 163.5 L 284.4375 163.9375 L 279.875 166.5 C 268.625 172.9375 261.0625 178.875 250.9375 189.3125 C 248.5 191.8125 248 192.625 248.625 193.25 C 249.25 193.875 250.125 193.25 252.875 190.1875 C 259.875 182.3125 273.5 172.0625 283.75 166.875 C 287.8125 164.875 289.1875 164.5 294.0625 164.25 C 299.4375 163.9375 305 162.375 305 161.1875 C 305 160.875 303.375 160.625 301.4375 160.5625 L 297.8125 160.5 L 305 158.125 C 308.9375 156.875 313.125 155.5625 314.25 155.3125 L 316.375 154.875 L 315.875 158.5625 C 315.1875 163.8125 315.375 166.0625 316.5 167.8125 C 317.75 169.75 318.8125 169.8125 320.375 168.0625 C 321.3125 167.0625 321.5625 165.75 321.625 162.25 C 321.6875 157.5625 322.3125 153.75 323 153.75 C 323.5 153.75 329.3125 162.875 331.1875 166.625 C 332.8125 169.9375 337.625 182 337.375 182.1875 C 337.25 182.25 333.875 182.625 329.875 183.0625 C 305.8125 185.4375 280.5 192.5625 256.6875 203.6875 C 253 205.4375 250 207.0625 250 207.4375 C 250 208.875 251.4375 208.6875 255.5 206.625 C 272.5 198.0625 296.9375 190.1875 316.5625 186.9375 C 326.5 185.25 337.5625 184.1875 338.1875 184.8125 C 339.25 185.9375 342.4375 200.875 343.1875 207.9375 C 345.125 227.625 339.125 246.625 326.875 259.3125 L 322.8125 263.5625 L 314.0625 263.125 C 298.125 262.25 280.75 264 268.875 267.5625 C 263.5625 269.1875 251.75 273.75 251 274.4375 C 250.625 274.8125 250.625 275.25 251 275.625 C 251.375 276 254.375 275.125 259.5 273.125 C 274.875 267.125 283.1875 265.625 303.125 265.1875 C 311.1875 265 318.4375 265.125 319.25 265.4375 C 320.5 265.9375 319.875 266.4375 313.3125 270.8125 L 306 275.625 L 294.0625 275.625 C 283.3125 275.625 272.375 276.25 266.125 277.25 C 264.5625 277.5 263.75 277.9375 263.75 278.5625 C 263.75 279.375 264.375 279.5 267.375 279.125 C 275.5625 278.1875 287.0625 277.5 294.0625 277.5625 C 300.9375 277.5625 301.4375 277.625 300.3125 278.5 C 298.625 279.8125 286.8125 285.75 286.5 285.4375 C 286.375 285.3125 286.5625 284.25 286.875 283.0625 C 288.0625 278.875 287.4375 279.125 282.25 284.6875 L 277.0625 290.25 L 270.25 287.9375 C 261.375 284.9375 255.0625 283.75 247.4375 283.75 C 242.375 283.75 241.25 283.9375 241.25 284.6875 C 241.25 285.4375 242.25 285.625 246.5 285.625 C 254.5 285.625 265.1875 287.8125 272.8125 291 L 275.1875 291.9375 L 271.8125 294.1875 C 266.6875 297.625 258.6875 301.1875 252 302.875 C 242 305.5 231.9375 304.3125 223.875 299.5625 L 221.1875 297.9375 L 222.9375 296.875 C 227.375 294.1875 230.3125 288.875 229.875 284.375 L 229.6875 282.1875 L 226.25 282.25 C 224.375 282.3125 221 282.4375 218.75 282.5625 C 216.5 282.625 211.8125 282.5 208.3125 282.1875 L 201.9375 281.6875 L 201.1875 283.3125 C 200.125 285.625 201.25 287.9375 205.75 292.875 C 207.8125 295.1875 209.375 297.4375 209.25 298 C 208.9375 299.625 204.125 301.75 199.5 302.25 C 193.75 302.875 184.0625 301.625 179.875 299.8125 L 176.5625 298.3125 L 184.0625 296 C 188.1875 294.6875 192.0625 293.5 192.6875 293.375 C 193.875 293 194.0625 292.1875 193.125 291.5625 C 192.5 291.1875 185.25 293.1875 177.9375 295.6875 C 173.8125 297.125 174.125 297.25 167.5625 292.25 C 164.375 289.875 164.25 289.6875 165.6875 289.3125 C 166.5 289.0625 170.5625 288.875 174.75 288.8125 C 185.875 288.75 191.875 288.125 191.875 287.125 C 191.875 286.125 188.0625 286.125 171.625 286.8125 C 162.875 287.1875 162.1875 287.125 161.125 286 C 160.5 285.3125 160 284.5625 160 284.25 C 160 284 159.5625 283.75 159.0625 283.75 C 158.4375 283.75 158.125 284.375 158.125 285.625 C 158.125 286.625 157.8125 287.5 157.5 287.5 C 156.3125 287.5 144.25 281.5625 139.75 278.8125 C 134.5 275.5625 128.5625 271.25 128.875 270.875 C 129.3125 270.4375 150.125 273 160.25 274.6875 C 165.4375 275.5625 174.1875 277.25 179.75 278.4375 C 191.1875 280.9375 191.25 280.9375 191.25 279.75 C 191.25 277.6875 150.6875 270.3125 131.75 269 C 126.25 268.625 125.5 268.375 123.375 266.6875 C 120.5 264.3125 113.125 255.6875 113.125 254.6875 C 113.125 254.3125 117.125 252.75 122.0625 251.25 C 133.1875 247.875 136.0625 246.5625 137.5625 244.125 C 139.125 241.625 139.0625 240.8125 137.25 238.5 C 136.4375 237.4375 134.1875 233.3125 132.1875 229.4375 C 127.8125 220.6875 127.875 220.625 137.4375 221.625 C 143.25 222.25 142 223.125 135.9375 222.6875 C 131.25 222.375 130.625 222.4375 130.625 223.375 C 130.625 225.25 132.25 228.375 134.9375 231.5625 C 136.4375 233.375 138.3125 236.75 139.4375 239.6875 C 143 249.125 146.8125 252.625 156 255.0625 C 160.375 256.1875 162 256.3125 170.375 255.9375 C 179.8125 255.5 179.875 255.5 180.875 256.9375 C 181.4375 257.75 181.875 259.1875 181.875 260.1875 C 181.875 261.9375 184.75 265.625 186.125 265.625 C 186.9375 265.625 187.5 261.8125 187.5 255.875 C 187.5 252.25 187 248.6875 185.6875 243.6875 C 183.9375 236.875 183.6875 236.4375 180.8125 233.8125 C 176.25 229.625 171.5625 226.75 168.0625 226 C 166.375 225.625 164.9375 225 164.9375 224.75 C 164.9375 224.4375 166.8125 223.375 169.0625 222.375 C 176.875 219.0625 189.9375 208.8125 203.1875 195.625 C 213 185.8125 213.75 184.375 214.1875 174.875 C 214.5 168.9375 214.3125 166.9375 213.1875 162.5 C 211.25 154.6875 208 148.5625 203.375 143.875 C 198.125 138.625 193.75 136.625 187.6875 136.5625 C 183.6875 136.5625 182.9375 136.75 180.4375 138.5 L 177.6875 140.5 L 170 136.4375 L 162.375 132.375 L 162.75 129.875 C 163.5625 124.75 169.375 108.5625 173.3125 100.5 C 186.0625 74.375 205.375 54.6875 226.5625 46.25 C 238.75 41.3125 246 40.8125 253.1875 44.1875 Z M 113.625 118.125 C 123.75 122.1875 146.25 136.1875 154.3125 143.5625 C 158.875 147.6875 161.875 151.9375 161.875 154.375 C 161.875 156.4375 159.1875 159.0625 156.125 159.875 C 153.875 160.5 153.5625 160.375 147.6875 156.3125 C 144.3125 154.0625 139.4375 150.625 136.875 148.6875 C 134.3125 146.8125 131.9375 145.0625 131.5625 144.875 C 131.25 144.6875 134.5 148.0625 138.8125 152.375 C 146.5 160.1875 150.5625 165 148.6875 164.25 C 143.125 161.9375 126.625 155.6875 126.5 155.8125 C 126.375 155.9375 128.0625 156.9375 130.1875 158.0625 C 135.25 160.875 143.125 166.375 143.125 167.25 C 143.125 168.1875 140.3125 169.375 138.25 169.375 C 137.3125 169.3125 135.875 168.9375 135 168.4375 C 132.375 166.9375 131.4375 167.375 128.375 171.3125 L 125.4375 175.1875 L 124.25 173.75 C 123.625 173 123.125 172 123.125 171.625 C 123.125 170.125 120.1875 168.0625 118.4375 168.25 C 116.375 168.4375 116.6875 169.1875 106.8125 140.25 C 102.4375 127.375 101.25 123.1875 101.25 120.4375 C 101.25 117.75 101.5 116.75 102.375 116.25 C 103.9375 115.25 108.1875 116 113.625 118.125 Z M 119.9375 176.25 C 133.1875 182.25 165.625 199.9375 165.625 201.0625 C 165.625 201.5 165.4375 201.875 165.1875 201.875 C 164.875 201.875 159.5 198.875 153.125 195.25 C 139.6875 187.625 125.5 180.3125 116.625 176.5 C 113.125 175 110.25 173.5 110.0625 173.0625 C 109.6875 171.9375 112.5 172.8125 119.9375 176.25 Z M 718.3125 195.25 C 720 195.9375 720.625 196.8125 722.125 200.6875 C 723.8125 205.125 723.875 205.5625 723.5 212.625 C 722.6875 226.75 719.9375 234 712.1875 241.6875 C 707.8125 246 706 247.25 700.5625 249.9375 C 697 251.625 688.5625 254.9375 681.875 257.1875 C 645.625 269.5625 622.9375 279.625 606.3125 290.6875 C 589.25 302 580.1875 312.625 573.375 329.25 C 571.75 333.25 570.1875 336.8125 569.875 337.125 C 569.625 337.5 569.375 336.0625 569.375 334 C 569.375 323.25 566.75 307.25 563.75 299.4375 L 561.875 294.75 L 564.3125 290.625 C 575.25 272.375 598.375 254.6875 625 244.1875 C 633.9375 240.6875 639.1875 239.3125 653.25 236.9375 C 666 234.75 672.125 232.875 678.6875 229.1875 C 685.25 225.5 690.1875 220.375 695.5 211.75 C 700 204.5625 704.3125 198.625 706.1875 197 C 709.3125 194.4375 714.5625 193.625 718.3125 195.25 Z M 154.25 226.6875 L 157 227 L 155.125 229 C 149.625 234.75 149.4375 241.625 154.625 246.5625 C 157.625 249.5 160.8125 250.625 166 250.625 C 171.875 250.625 174.5 248.375 176.5 241.625 L 177.25 239.0625 L 178.6875 242.8125 C 179.5 244.875 180.25 247.9375 180.4375 249.6875 L 180.75 252.8125 L 159.6875 252.8125 L 154.5 250.0625 C 148.625 247 146.0625 244.3125 145 240.0625 C 143.75 235.1875 142.5 232.3125 140.25 229.3125 C 139.0625 227.6875 138.125 226.1875 138.125 225.9375 C 138.125 225.4375 149.125 225.9375 154.25 226.6875 Z M 163 234.5 C 165.1875 236.875 165.3125 238.875 163.4375 241.125 C 161.6875 243.1875 160.0625 243.5625 157.25 242.5 C 154 241.3125 153.75 237.6875 156.6875 234.6875 C 158.6875 232.75 161.25 232.6875 163 234.5 Z M 170.125 240.4375 C 172.375 242.4375 171.0625 247.5 168.3125 247.5 C 165.4375 247.5 163.9375 242.875 166.0625 240.5 C 167.3125 239.125 168.625 239.0625 170.125 240.4375 Z M 324.625 280.5625 C 328 281.25 332.875 282.4375 335.4375 283.1875 C 339.625 284.4375 340.0625 284.6875 339.6875 285.875 C 336.9375 294.3125 336.75 295.8125 336.5 311.6875 C 336.375 320.375 336 330.375 335.6875 334 C 334.1875 349.8125 329.5 365 321.875 378.75 C 320.4375 381.3125 319 384.0625 318.6875 384.875 C 317.75 387.25 316.3125 386.3125 311.25 380.3125 C 308.6875 377.1875 304.75 372.875 302.5 370.625 C 298.875 367 297.6875 366.25 290.9375 363.4375 C 279.5 358.75 263.5625 350.5625 256 345.5625 C 252.1875 343.0625 246.75 338.75 243.875 336 C 236.25 328.6875 225 313.4375 225 310.5 C 225.0625 308 225.875 307.8125 236.6875 307.75 C 245.1875 307.6875 248.125 307.4375 252 306.375 C 260.3125 304.125 267.3125 300.8125 277.3125 294.375 C 278.5 293.625 279.0625 293.6875 282 295 C 291.75 299.5 308.5 309.9375 319.0625 318.0625 C 324.1875 322 324.6875 322.25 325.25 321.3125 C 326.375 319.5625 300.0625 301.625 286.1875 294.6875 C 283.75 293.4375 281.9375 292.1875 282.25 291.9375 C 282.5625 291.6875 285.625 290.25 289.0625 288.8125 C 292.5 287.375 298.4375 284.5625 302.1875 282.5 L 309.0625 278.75 L 313.75 279.0625 C 316.3125 279.1875 321.1875 279.875 324.625 280.5625 Z M 217.875 299.5625 C 218.5625 300 220.375 301.3125 221.8125 302.5625 C 224.6875 305.0625 224.375 305.625 220.125 305.625 C 217.5625 305.625 210.8125 304.125 210.125 303.4375 C 209.5 302.8125 214.125 298.75 215.4375 298.75 C 216.0625 298.8125 217.125 299.125 217.875 299.5625 Z M 228.3125 322.8125 C 234.9375 331.625 235.6875 333.1875 235.3125 337.25 C 235.125 338.9375 234.75 344.125 234.375 348.75 C 234 353.375 232.75 365.5 231.5 375.625 C 230.3125 385.75 228.8125 399.5 228.1875 406.1875 C 226.9375 418.875 226.75 419.3125 223.75 419.375 C 222.875 419.375 220.5625 419.75 218.625 420.25 L 215 421.0625 L 215 418.5 C 215 415.0625 218.5625 328.375 219.125 319.5 L 219.5 312.375 L 221.0625 313.875 C 221.9375 314.6875 225.1875 318.6875 228.3125 322.8125 Z M 240 340.1875 C 242.625 345.8125 260.4375 355.8125 287 366.5 C 292.6875 368.875 298.25 371.375 299.25 372.0625 C 300.3125 372.8125 304 376.875 307.375 381 L 313.625 388.5625 L 307.9375 392.25 C 304.8125 394.25 299.4375 398.0625 296 400.75 L 289.75 405.625 L 260.8125 405.625 C 233.0625 405.625 231.875 405.5625 231.875 404.5 C 231.875 403.375 233.75 384.1875 237 351.6875 C 237.75 344.25 238.5 338.125 238.6875 338.125 C 238.875 338.125 239.5 339.0625 240 340.1875 Z M 279.4375 415.0625 C 272.25 421.9375 266.875 425.8125 263 427 C 260.6875 427.6875 260.25 427.625 258.1875 426.375 C 250 421.25 242.3125 418.75 235.0625 418.75 L 230.4375 418.75 L 230.8125 414.375 C 231 411.9375 231.375 409.6875 231.5625 409.375 C 231.8125 409 241.625 408.75 258.9375 408.75 L 285.9375 408.8125 Z M 222.875 440 C 223.3125 440 224.1875 440.6875 224.6875 441.5 C 225.625 442.875 225.625 443.1875 224.75 444.9375 C 223.5625 447.1875 222 448.125 219.375 448.125 C 217.1875 448.125 215.0625 447.1875 213.9375 445.6875 C 212.9375 444.4375 212.875 441.4375 213.875 440.875 C 215.1875 440.0625 218.4375 439.4375 220.25 439.75 C 221.25 439.875 222.4375 440 222.875 440 Z M 219.9375 454.6875 C 228.9375 456.8125 238.0625 463.4375 242.8125 471.3125 C 249.25 481.875 249.8125 494.75 244.25 506.1875 C 241.4375 511.9375 233.6875 519.75 228.0625 522.375 C 217.4375 527.4375 206.0625 527.4375 195.75 522.375 C 189.9375 519.5 182.25 511.8125 179.5 506.0625 C 172.8125 492.125 175.0625 476.8125 185.5 465.5625 C 194.5 455.8125 207.375 451.75 219.9375 454.6875 Z M 219.9375 454.6875 "/>
<path style=" stroke:none;fill-rule:nonzero;fill:rgb(0%,0%,0%);fill-opacity:1;" d="M 275.6875 217.5 C 270.5625 218.1875 264.0625 219.8125 258.4375 221.9375 C 252.125 224.3125 248.0625 229 244.375 238.375 C 240.75 247.5 239 258.0625 240.625 260.625 C 241.25 261.625 241.1875 261.6875 243 258.75 C 243.6875 257.5625 245.4375 255.4375 246.8125 254.0625 L 249.375 251.625 L 259.625 253.0625 C 270.9375 254.6875 274.5625 254.625 280.0625 252.5625 C 286.1875 250.25 289.4375 245.9375 293.9375 233.9375 C 295.375 230.1875 297 227.1875 299.25 224.4375 C 303.1875 219.5 303.3125 218.4375 300.1875 217.875 C 295.875 217.1875 280.375 216.9375 275.6875 217.5 Z M 293.125 225.75 C 293.125 226.4375 291.6875 230.625 289.9375 235 C 286.1875 244.5625 283.9375 247.5 279.125 249.3125 C 273.6875 251.3125 270.4375 251.4375 261.4375 250.0625 C 256.9375 249.3125 251.75 248.75 249.9375 248.75 L 246.6875 248.75 L 247.0625 245.9375 C 247.9375 239.5625 252.125 231.875 255.8125 229.9375 C 256.875 229.3125 256.9375 229.4375 256.4375 230.75 C 256.1875 231.5 255.9375 233.9375 255.9375 236.0625 C 255.9375 239.3125 256.25 240.3125 257.8125 242.625 C 265.0625 252.9375 282.125 250.125 285.75 238 C 286.6875 234.8125 285.75 231.6875 282.4375 227.5625 L 279.875 224.375 L 286.5 224.375 C 292.875 224.375 293.125 224.4375 293.125 225.75 Z M 268.0625 234.125 C 269.375 235.75 269.75 238.875 269 240.9375 C 268.75 241.4375 267.8125 242.3125 266.8125 242.875 C 261.75 245.4375 257.0625 238.75 260.6875 234.125 C 261.6875 232.875 262.5 232.5 264.375 232.5 C 266.25 232.5 267.0625 232.875 268.0625 234.125 Z M 276.5 240.125 C 277.0625 240.875 277.5 242.1875 277.5 242.9375 C 277.5 244.5625 275.5 246.875 274.0625 246.875 C 272.625 246.875 270.625 244.5625 270.625 242.9375 C 270.625 240.875 272.375 238.75 274.0625 238.75 C 274.875 238.75 276 239.375 276.5 240.125 Z M 276.5 240.125 "/>
<path style=" stroke:none;fill-rule:nonzero;fill:rgb(0%,0%,0%);fill-opacity:1;" d="M 62.8125 180.6875 C 52.8125 182 41.6875 186.1875 30.875 192.5625 C 24.3125 196.5 18.0625 201.375 18.8125 202.125 C 19 202.3125 22.0625 200.375 25.6875 197.8125 C 42.5625 185.6875 59.375 180.625 76.5625 182.375 C 84.25 183.1875 92.1875 184.8125 98.625 186.9375 C 102.375 188.1875 104.0625 188.1875 102.75 186.9375 C 101.8125 186 90.6875 182.6875 85.1875 181.625 C 78.5625 180.375 68.3125 179.9375 62.8125 180.6875 Z M 62.8125 180.6875 "/>
<path style=" stroke:none;fill-rule:nonzero;fill:rgb(0%,0%,0%);fill-opacity:1;" d="M 628.4375 471.625 C 602.3125 477.4375 584.375 502.375 587.4375 528.5625 C 588.25 535.25 590.4375 542.4375 593.125 547.25 L 594.9375 550.4375 L 588.5625 551.1875 C 575.75 552.75 563.6875 555.875 556.8125 559.5 C 544.6875 565.875 546.9375 573.75 562.625 579.4375 C 586.0625 588 629.25 589.125 658.0625 581.8125 C 671.8125 578.375 679.375 573.5 679.375 568.0625 C 679.375 566 679 565.125 677.25 563.375 L 675.1875 561.3125 L 677.625 558.625 C 683.4375 552.375 687.8125 544.375 690.0625 535.9375 C 691.625 530 691.9375 518.0625 690.6875 512.1875 C 687.1875 496 676.3125 482.5 661.0625 475.3125 C 654.25 472.0625 650 471.125 640.9375 470.875 C 635.125 470.6875 631.5625 470.9375 628.4375 471.625 Z M 616.875 527.3125 C 621.1875 528.5 624.1875 530 629.875 533.9375 C 635.125 537.5625 637.375 540.125 640 545.6875 C 642.75 551.5625 643.5 555.5 642.625 560.0625 C 640.8125 570 634.3125 573.8125 624.3125 570.875 C 620.75 569.8125 614.875 567 612.8125 565.375 C 612.125 564.8125 613.125 565.125 615 566.0625 C 617.4375 567.3125 619.3125 567.8125 621.75 567.8125 C 624.75 567.8125 625.3125 567.625 627 565.6875 C 628.8125 563.6875 628.875 563.3125 628.5625 559.8125 C 628.0625 554.1875 624.0625 549.1875 619.3125 548.1875 C 617.75 547.875 617.1875 547.375 616.8125 546 C 616.125 543.5625 613.9375 541.3125 610.9375 539.9375 C 607.8125 538.5 605.5 538.4375 602.75 539.75 C 599.8125 541.125 598.0625 543.875 597.5625 547.6875 L 597.1875 550.9375 L 595.125 547.4375 C 591.5 541.125 592.625 532.9375 597.625 529.1875 C 602.1875 525.75 608.875 525.125 616.875 527.3125 Z M 609 545.3125 C 610.9375 547.4375 611.3125 549 610.1875 550.5625 C 609.125 552.1875 605.875 552.3125 603.8125 550.875 C 602.625 550 602.4375 549.4375 602.6875 547.6875 C 602.9375 546.5 603.375 545.125 603.8125 544.625 C 604.9375 543.25 607.4375 543.5625 609 545.3125 Z M 620.5625 555.9375 C 624.3125 560.25 622.3125 563.5625 617.125 561.5625 C 613.0625 560 612.0625 557.625 614.375 555.125 C 616.25 553.125 618.3125 553.375 620.5625 555.9375 Z M 602.875 555.9375 C 603.875 556.4375 605.4375 556.875 606.3125 556.875 C 607.6875 556.875 608.0625 557.25 608.375 559 C 608.625 560.1875 609.4375 561.9375 610.1875 562.875 L 611.5625 564.6875 L 609.4375 563.1875 C 606.9375 561.375 600.125 555.0625 600.6875 555 C 600.9375 555 601.9375 555.4375 602.875 555.9375 Z M 602.875 555.9375 "/>
</g>
</svg>
