<?xml version="1.0" encoding="UTF-8"?>
<svg xmlns="http://www.w3.org/2000/svg" xmlns:xlink="http://www.w3.org/1999/xlink" width="350px" height="350px" viewBox="0 0 350 350" version="1.1">
<g id="surface1">
<path style=" stroke:none;fill-rule:nonzero;fill:rgb(0%,0%,0%);fill-opacity:1;" d="M 185.503906 50.15625 C 162.84375 50.738281 141.660156 57.679688 125.484375 69.804688 C 120.535156 73.511719 116.78125 77.027344 111.347656 83.039062 C 99.378906 96.28125 92.601562 107.925781 90.011719 119.71875 C 89.308594 122.890625 88.886719 126.621094 88.878906 129.621094 L 88.875 130.230469 L 88.289062 130.703125 C 83.574219 134.535156 79.511719 139.40625 76.390625 144.992188 C 75.84375 145.96875 74.773438 148.125 74.324219 149.152344 C 72.066406 154.277344 70.65625 159.703125 70.128906 165.257812 C 69.890625 167.730469 69.417969 175.789062 69.261719 179.980469 C 69.066406 185.339844 69.066406 191.21875 69.261719 195.710938 C 69.898438 209.984375 72.441406 221.71875 77.121094 231.917969 C 77.515625 232.78125 78.644531 235.042969 79.113281 235.90625 C 80.6875 238.820312 82.082031 240.832031 84.085938 243.089844 C 84.671875 243.753906 86.070312 245.160156 86.75 245.769531 C 90.210938 248.894531 94.375 251.453125 98.9375 253.253906 C 102.695312 254.742188 106.871094 255.757812 110.867188 256.15625 C 111.261719 256.195312 111.59375 256.242188 111.605469 256.253906 C 111.621094 256.265625 111.664062 256.75 111.703125 257.328125 C 112.554688 270.140625 116.730469 282.066406 123.546875 291.140625 C 125.601562 293.878906 127.417969 295.863281 130.269531 298.480469 C 132.242188 300.28125 133.976562 301.476562 136.265625 302.609375 C 141.226562 305.058594 146.71875 305.730469 151.820312 304.5 C 154.40625 303.875 156.59375 302.625 158.71875 300.554688 C 160.328125 298.984375 161.75 297.191406 163.835938 294.089844 C 164.015625 293.820312 164.179688 293.597656 164.195312 293.597656 C 164.21875 293.597656 164.453125 293.738281 164.726562 293.90625 C 168.359375 296.171875 172.453125 297.554688 176.402344 297.84375 C 177.273438 297.910156 179.292969 297.875 180.066406 297.78125 C 181.363281 297.625 182.691406 297.339844 183.800781 296.972656 C 184.558594 296.722656 186.203125 296.050781 186.933594 295.699219 C 190.199219 294.105469 193.027344 291.214844 195.292969 287.152344 C 195.757812 286.316406 196.496094 284.804688 196.882812 283.894531 C 197.0625 283.46875 197.25 283.039062 197.289062 282.9375 L 197.371094 282.753906 L 197.484375 282.835938 C 197.550781 282.882812 197.902344 283.132812 198.273438 283.390625 C 200.875 285.230469 202.738281 286.375 204.699219 287.339844 C 206.679688 288.316406 208.257812 288.875 210.035156 289.226562 C 212.300781 289.679688 215.125 289.683594 217.425781 289.246094 C 220.867188 288.585938 224.175781 286.957031 227.066406 284.5 C 227.730469 283.9375 229.136719 282.519531 229.6875 281.859375 C 230.964844 280.332031 231.921875 278.859375 232.757812 277.15625 C 234.070312 274.484375 234.671875 272.484375 235.023438 269.65625 C 235.289062 267.5 235.359375 264.390625 235.226562 260.382812 L 235.203125 259.535156 L 236.816406 259.535156 C 246.390625 259.535156 256.117188 257.535156 264.917969 253.761719 C 274.769531 249.542969 283.214844 243.226562 289.507812 235.378906 C 290.832031 233.726562 292.699219 231.136719 293.855469 229.351562 C 301.207031 218.011719 305.378906 203.964844 306.429688 187.039062 C 306.859375 180.109375 306.757812 172.300781 306.152344 165.53125 C 303.949219 140.882812 295.4375 117.128906 281.941406 97.949219 C 275.929688 89.402344 269.078125 81.914062 261.257812 75.328125 C 250.828125 66.550781 238.269531 59.796875 224.355469 55.484375 C 212.015625 51.660156 198.566406 49.816406 185.503906 50.15625 Z M 192.015625 63.59375 C 202.046875 63.917969 211.460938 65.492188 221.46875 68.511719 C 232.136719 71.726562 242.46875 77.222656 251.679688 84.574219 C 262.066406 92.863281 270.882812 103.328125 277.519531 115.234375 C 278.984375 117.863281 281.011719 121.941406 281.675781 123.601562 C 282.421875 125.46875 283.027344 127.691406 283.367188 129.789062 C 283.910156 133.117188 284.121094 135.835938 284.121094 139.324219 C 284.121094 141.933594 284.046875 143.410156 283.785156 145.832031 C 281.925781 163.1875 272.609375 179.890625 258.464844 191.234375 C 257.121094 192.308594 254.359375 194.347656 254.242188 194.347656 C 254.207031 194.347656 253.585938 192.953125 253.0625 191.699219 C 251.003906 186.773438 249.171875 181.359375 247.0625 173.964844 C 246.433594 171.765625 246.105469 170.578125 244.855469 166.015625 C 242.308594 156.738281 241.050781 152.519531 239.390625 147.773438 L 239.015625 146.707031 L 238.898438 146.851562 C 238.546875 147.265625 237.761719 148.324219 237.421875 148.835938 C 236.308594 150.519531 235.765625 151.933594 235.640625 153.480469 C 235.539062 154.734375 235.496094 156.503906 235.523438 158.582031 C 235.5625 162.195312 235.726562 164.28125 236.558594 171.621094 C 237.03125 175.78125 237.1875 177.417969 237.378906 180.066406 C 237.621094 183.515625 237.667969 184.839844 237.636719 188.148438 C 237.617188 190.746094 237.597656 191.382812 237.460938 193.273438 C 236.886719 201.328125 235.121094 208.738281 232.207031 215.328125 C 231.339844 217.296875 229.695312 220.417969 228.894531 221.628906 C 228.332031 222.476562 227.855469 223.046875 227.070312 223.832031 C 224.496094 226.402344 221.046875 228.171875 215.179688 229.917969 C 209.957031 231.472656 207.550781 232.046875 204.226562 232.527344 C 200.644531 233.039062 197.199219 233.289062 190.917969 233.476562 L 189.988281 233.503906 L 190.066406 233.792969 C 190.378906 234.917969 191.054688 236.015625 191.960938 236.875 C 192.839844 237.710938 194.066406 238.492188 195.65625 239.230469 C 196.554688 239.644531 199 240.691406 199.964844 241.074219 C 203.992188 242.65625 208.660156 243.773438 213.3125 244.265625 C 213.890625 244.328125 214.398438 244.382812 214.449219 244.398438 C 214.527344 244.410156 214.542969 244.46875 214.609375 245.113281 C 214.679688 245.761719 214.78125 246.507812 215.324219 250.230469 C 215.984375 254.824219 215.964844 257.566406 215.246094 260.066406 C 214.90625 261.253906 214.375 262.402344 213.636719 263.535156 C 213.0625 264.417969 212.757812 264.804688 212.238281 265.300781 C 210.765625 266.722656 209.109375 267.515625 205.300781 268.628906 C 204.625 268.824219 203.855469 269.054688 203.59375 269.136719 C 203.257812 269.242188 203.105469 269.269531 203.050781 269.242188 C 202.945312 269.1875 202.21875 268.363281 201.855469 267.898438 C 201.398438 267.296875 200.933594 266.527344 200.519531 265.6875 C 199.855469 264.332031 199.464844 263.242188 198.625 260.417969 C 197.433594 256.398438 196.808594 254.863281 195.6875 253.214844 C 195.15625 252.433594 194.882812 252.125 194.464844 251.84375 C 193.78125 251.390625 193.195312 251.128906 192.414062 250.933594 C 192.019531 250.832031 191.894531 250.824219 191.195312 250.820312 C 190.601562 250.820312 190.335938 250.835938 190.0625 250.894531 C 187.921875 251.351562 186.046875 252.898438 185.027344 255.046875 C 184.746094 255.636719 184.519531 256.3125 184.414062 256.867188 C 184.214844 257.902344 182.855469 260.804688 181.546875 262.976562 C 179.886719 265.738281 177.890625 268.257812 175.320312 270.835938 C 173.042969 273.121094 171.027344 274.828125 168.261719 276.804688 C 167.65625 277.242188 167.570312 277.292969 167.542969 277.222656 C 167.488281 277.078125 167.089844 275.234375 166.921875 274.339844 C 166.832031 273.851562 166.605469 272.582031 166.414062 271.503906 C 166.007812 269.148438 165.710938 267.585938 165.488281 266.570312 C 164.921875 264.023438 164.167969 261.597656 163.738281 260.953125 C 163.484375 260.566406 162.878906 259.9375 162.492188 259.644531 C 160.078125 257.828125 156.484375 258.035156 153.996094 260.125 C 153.359375 260.664062 152.8125 261.359375 152.445312 262.117188 C 152.324219 262.371094 152.089844 262.964844 151.933594 263.441406 C 151.773438 263.914062 151.570312 264.484375 151.484375 264.699219 C 149.8125 268.882812 146.710938 272.382812 141.785156 275.660156 C 140.8125 276.304688 140.015625 276.804688 139.007812 277.394531 C 137.542969 278.25 136.15625 279.011719 133.355469 280.484375 L 132.402344 280.984375 L 132.03125 280.308594 C 128.183594 273.273438 125.816406 265.722656 125.1875 258.484375 C 125.15625 258.082031 125.117188 257.632812 125.105469 257.484375 C 125.089844 257.292969 125.097656 257.214844 125.132812 257.203125 C 136.074219 253.417969 142.914062 250.105469 148.414062 245.929688 C 148.824219 245.613281 149.285156 245.265625 149.441406 245.15625 C 151.023438 244.015625 152.042969 242.472656 152.917969 239.898438 C 153.125 239.289062 153.613281 237.683594 153.59375 237.671875 C 153.585938 237.667969 152.660156 237.871094 151.523438 238.117188 C 142.015625 240.222656 136.527344 241.261719 131.34375 241.957031 C 122.121094 243.183594 114.4375 243.148438 107.191406 241.847656 C 105.125 241.472656 103.515625 240.964844 101.792969 240.132812 C 98.488281 238.542969 95.441406 235.9375 92.859375 232.507812 C 90.359375 229.1875 88.324219 225.105469 86.902344 220.589844 C 84.476562 212.835938 83.097656 204.394531 82.660156 194.597656 C 82.488281 190.65625 82.488281 184.878906 82.660156 180.191406 C 82.804688 176.386719 83.25 168.792969 83.4375 166.984375 C 84.132812 160.332031 86.554688 154.527344 90.449219 150.179688 C 91.332031 149.199219 94.972656 145.601562 97.066406 143.644531 C 108.707031 132.78125 121.019531 124.605469 133.671875 119.324219 C 134.273438 119.078125 134.769531 118.855469 134.777344 118.835938 C 134.78125 118.8125 134.628906 118.644531 134.429688 118.457031 C 133.265625 117.351562 132.117188 116.671875 130.839844 116.328125 C 130.210938 116.160156 129.59375 116.09375 128.667969 116.105469 C 128.210938 116.105469 127.457031 116.085938 126.996094 116.0625 C 125.953125 116.003906 123.640625 116 122.4375 116.054688 C 116.238281 116.34375 110.242188 117.621094 104.292969 119.917969 C 103.773438 120.121094 103.34375 120.269531 103.335938 120.253906 C 103.316406 120.207031 104.019531 118.523438 104.566406 117.292969 C 108.378906 108.707031 113.503906 100.703125 119.738281 93.582031 C 126.53125 85.820312 134.445312 79.3125 143.167969 74.324219 C 143.976562 73.859375 145.476562 73.109375 146.988281 72.414062 C 158.65625 67.039062 171.613281 64.054688 185.230469 63.597656 C 186.675781 63.546875 190.558594 63.546875 192.015625 63.59375 Z M 192.015625 63.59375 "/>
<path style=" stroke:none;fill-rule:nonzero;fill:rgb(0%,0%,0%);fill-opacity:1;" d="M 199.261719 134.582031 C 198.097656 134.679688 197.128906 134.859375 195.800781 135.207031 C 194.128906 135.648438 192.890625 136.09375 191.59375 136.714844 C 188.125 138.386719 185.125 140.945312 182.488281 144.46875 C 177.933594 150.554688 174.820312 159.375 173.871094 168.871094 C 173.554688 172.050781 173.507812 175.742188 173.742188 179.035156 C 174.488281 189.363281 177.84375 199.269531 183.390625 207.527344 C 185.167969 210.167969 187.457031 212.414062 190.210938 214.226562 C 193.382812 216.308594 196.886719 217.585938 200.519531 217.980469 C 201.46875 218.082031 203.550781 218.082031 204.457031 217.980469 C 206.472656 217.753906 208.226562 217.285156 209.976562 216.511719 C 212.050781 215.585938 213.1875 214.910156 214.488281 213.816406 C 215.023438 213.359375 216.0625 212.3125 216.539062 211.734375 C 218.347656 209.574219 219.921875 206.746094 221.632812 202.585938 C 222.246094 201.101562 224.039062 196.589844 224.324219 195.816406 C 226.15625 190.867188 227.402344 185.269531 227.859375 179.917969 C 228.03125 177.933594 228.054688 177.328125 228.054688 174.667969 C 228.050781 172.019531 228.019531 171.292969 227.84375 169.355469 C 227.074219 161.070312 224.519531 153.296875 220.390625 146.695312 C 218.214844 143.210938 215.476562 140.382812 212.175781 138.210938 C 211.222656 137.578125 210.589844 137.21875 209.53125 136.699219 C 207.257812 135.582031 205.074219 134.925781 202.664062 134.640625 C 201.992188 134.558594 199.914062 134.523438 199.261719 134.582031 Z M 198.421875 160.050781 C 198.871094 160.199219 199.402344 160.460938 199.808594 160.75 C 200.484375 161.222656 201.289062 162.179688 201.597656 162.867188 C 201.847656 163.441406 202.511719 165.382812 202.8125 166.425781 C 204.164062 171.140625 204.09375 175.300781 202.621094 178.257812 C 202.121094 179.261719 201.683594 179.867188 200.851562 180.710938 L 200.277344 181.296875 L 199.695312 181.269531 C 199.070312 181.242188 198.574219 181.148438 198.105469 180.96875 C 196.253906 180.269531 194.863281 178.316406 194.011719 175.203125 C 193.601562 173.722656 193.480469 172.878906 193.246094 170.046875 C 193.160156 169.039062 193.175781 166.542969 193.265625 165.832031 C 193.492188 164.042969 193.953125 162.675781 194.714844 161.5 C 195.21875 160.722656 195.53125 160.425781 196.132812 160.152344 C 196.59375 159.941406 196.820312 159.902344 197.476562 159.921875 C 197.980469 159.933594 198.113281 159.949219 198.421875 160.050781 Z M 198.421875 160.050781 "/>
<path style=" stroke:none;fill-rule:nonzero;fill:rgb(0%,0%,0%);fill-opacity:1;" d="M 121.179688 143.175781 C 121.097656 143.179688 120.8125 143.207031 120.546875 143.234375 C 119.84375 143.296875 118.726562 143.496094 117.960938 143.691406 C 114.921875 144.464844 111.679688 146.238281 108.808594 148.695312 C 108.125 149.28125 106.472656 150.9375 105.878906 151.628906 C 102.914062 155.109375 100.871094 158.808594 99.378906 163.371094 C 96.515625 172.152344 95.761719 181.617188 97.199219 190.839844 C 99.234375 203.921875 105.484375 215.246094 114.792969 222.722656 C 115.082031 222.953125 115.515625 223.292969 115.757812 223.476562 C 116.003906 223.660156 116.339844 223.925781 116.507812 224.070312 C 116.675781 224.21875 117.03125 224.503906 117.300781 224.703125 C 119.605469 226.414062 122.4375 227.46875 125.546875 227.765625 C 126.507812 227.855469 128.492188 227.824219 129.390625 227.699219 C 132.628906 227.257812 135.472656 226.078125 137.757812 224.222656 C 138.28125 223.796875 139.621094 222.558594 140.140625 222.023438 C 143.765625 218.261719 146.445312 213.703125 148.292969 208.144531 C 149.820312 203.550781 150.710938 198.382812 150.914062 192.917969 C 150.941406 192.257812 150.980469 191.320312 151 190.832031 C 151.246094 185.5625 151.0625 181.089844 150.410156 176.539062 C 149.394531 169.429688 147.25 163.042969 144.054688 157.613281 C 141.941406 154.015625 139 150.4375 136.464844 148.371094 C 132.769531 145.359375 128.464844 143.570312 123.972656 143.1875 C 123.511719 143.148438 121.535156 143.136719 121.179688 143.175781 Z M 119.679688 163.136719 C 120.679688 163.351562 121.839844 163.84375 122.730469 164.429688 C 124.464844 165.566406 125.949219 167.308594 126.71875 169.117188 C 127.089844 169.988281 127.53125 171.5625 127.714844 172.660156 C 127.820312 173.304688 127.839844 175.019531 127.753906 175.78125 C 127.28125 179.929688 125.058594 183.207031 122.027344 184.222656 C 120.257812 184.816406 118.304688 184.65625 116.453125 183.765625 C 115.507812 183.3125 114.851562 182.851562 114.0625 182.082031 C 113.480469 181.511719 113.152344 181.117188 112.671875 180.402344 C 110.851562 177.6875 110.167969 173.890625 110.867188 170.425781 C 111.476562 167.394531 113.238281 164.757812 115.382812 163.683594 C 115.992188 163.378906 116.753906 163.144531 117.460938 163.039062 C 117.53125 163.027344 117.964844 163.023438 118.425781 163.035156 C 119.085938 163.046875 119.355469 163.066406 119.679688 163.136719 Z M 119.679688 163.136719 "/>
<path style=" stroke:none;fill-rule:nonzero;fill:rgb(0%,0%,0%);fill-opacity:1;" d="M 162.484375 201.023438 C 161.996094 201.070312 161.417969 201.191406 160.921875 201.351562 C 160.621094 201.449219 160.445312 201.542969 160.164062 201.742188 C 156.113281 204.664062 153.296875 209.210938 152.179688 214.640625 C 151.648438 217.222656 151.554688 220.234375 151.929688 222.78125 C 152.453125 226.40625 153.753906 229.609375 155.785156 232.296875 C 156.855469 233.714844 159.042969 236.03125 160.367188 237.152344 C 162.746094 239.167969 164.867188 240.246094 167.277344 240.679688 C 167.984375 240.804688 169.367188 240.835938 170.152344 240.742188 C 170.464844 240.703125 171.097656 240.667969 171.558594 240.660156 C 172.746094 240.632812 173.347656 240.492188 174.332031 240.003906 C 174.945312 239.695312 175.453125 239.335938 176.019531 238.804688 C 177.898438 237.046875 179.289062 233.9375 179.6875 230.617188 C 179.710938 230.40625 179.78125 229.992188 179.839844 229.695312 C 180.082031 228.429688 180.125 227.914062 180.128906 226.332031 C 180.128906 224.542969 180.046875 223.773438 179.683594 222.046875 C 179.058594 219.082031 177.636719 215.710938 175.515625 212.15625 C 174.566406 210.558594 173.054688 208.265625 172.234375 207.179688 C 170.238281 204.515625 168.253906 202.71875 166.292969 201.773438 C 165.082031 201.191406 163.667969 200.914062 162.484375 201.023438 Z M 162.484375 201.023438 "/>
</g>
</svg>
